<svg xmlns="http://www.w3.org/2000/svg" version="1.1" xmlns:xlink="http://www.w3.org/1999/xlink" xmlns:svgjs="http://svgjs.dev/svgjs" width="1500" height="1500" viewBox="0 0 1500 1500"><rect width="1500" height="1500" fill="#000000"></rect><g transform="matrix(0.6666666666666666,0,0,0.6666666666666666,249.39393939393938,684.2671067539216)"><svg viewBox="0 0 396 52" data-background-color="#c8c7c3" preserveAspectRatio="xMidYMid meet" height="196" width="1500" xmlns="http://www.w3.org/2000/svg" xmlns:xlink="http://www.w3.org/1999/xlink"><g id="tight-bounds" transform="matrix(1,0,0,1,0.2400000000000091,0.15900853670464699)"><svg viewBox="0 0 395.52 51.68198292659073" height="51.68198292659073" width="395.52"><g><svg viewBox="0 0 496.3431625697926 64.85638868745467" height="51.68198292659073" width="395.52"><g><rect width="5.819717476246555" height="64.85638868745467" x="79.7685825902828" y="0" fill="#ffffff" opacity="1" stroke-width="0" stroke="transparent" fill-opacity="1" class="rect-qz-0" data-fill-palette-color="primary" rx="1%" id="qz-0" data-palette-color="#d9fe00"></rect></g><g transform="matrix(1,0,0,1,100.82316256979259,0.1613343002175469)"><svg viewBox="0 0 395.52 64.53372008701957" height="64.53372008701957" width="395.52"><g id="textblocktransform"><svg viewBox="0 0 395.52 64.53372008701957" height="64.53372008701957" width="395.52" id="textblock"><g><svg viewBox="0 0 395.52 64.53372008701957" height="64.53372008701957" width="395.52"><g transform="matrix(1,0,0,1,0,0)"><svg width="395.52" viewBox="3.3 -33.13 206.82999999999998 33.760000000000005" height="64.53372008701957" data-palette-color="#d9fe00"><path d="M37.83-15.73L37.83 0 33.77 0 33.77-15.28Q33.77-17.2 33.29-18.61 32.8-20.03 31.69-20.8 30.58-21.58 28.7-21.58L28.7-21.58Q26.93-21.58 25.63-20.85 24.33-20.13 23.53-18.91 22.73-17.7 22.4-16.15L22.4-16.15 21.78-19.03 22.28-19.03Q22.68-20.6 23.63-21.95 24.58-23.3 26.2-24.13 27.83-24.95 30.23-24.95L30.23-24.95Q32.95-24.95 34.61-23.88 36.27-22.8 37.05-20.74 37.83-18.68 37.83-15.73L37.83-15.73ZM7.35-18.3L7.35 0 3.3 0 3.3-24.4 7.35-24.4 7.18-18.55 7.35-18.3ZM22.58-15.85L22.58 0 18.55 0 18.55-15.28Q18.55-17.2 18.06-18.61 17.57-20.03 16.48-20.8 15.38-21.58 13.5-21.58L13.5-21.58Q11.7-21.58 10.4-20.85 9.1-20.13 8.3-18.89 7.5-17.65 7.18-16.07L7.18-16.07 6.43-18.95 7.33-18.95Q7.7-20.6 8.63-21.96 9.55-23.33 11.14-24.14 12.73-24.95 15-24.95L15-24.95Q18.38-24.95 20.14-23.2 21.9-21.45 22.35-18.1L22.35-18.1Q22.48-17.6 22.53-17.01 22.58-16.43 22.58-15.85L22.58-15.85ZM62.6-15.8L62.6 0 58.57 0 58.75-5.93 58.6-6.55 58.6-14.33 58.62-15.75Q58.62-18.73 57.11-20.15 55.6-21.58 52.32-21.58L52.32-21.58Q49.7-21.58 47.51-20.83 45.32-20.08 43.62-19.07L43.62-19.07 44-22.53Q44.95-23.1 46.26-23.66 47.57-24.23 49.26-24.6 50.95-24.98 52.97-24.98L52.97-24.98Q55.6-24.98 57.44-24.34 59.27-23.7 60.41-22.5 61.55-21.3 62.07-19.6 62.6-17.9 62.6-15.8L62.6-15.8ZM50.17 0.53L50.17 0.53Q46.55 0.53 44.61-1.24 42.67-3 42.67-6.28L42.67-6.28 42.67-7Q42.67-10.38 44.76-12.04 46.85-13.7 51.4-14.35L51.4-14.35 59.12-15.45 59.35-12.5 51.9-11.43Q49.1-11.03 47.9-10.06 46.7-9.1 46.7-7.23L46.7-7.23 46.7-6.83Q46.7-4.9 47.89-3.88 49.07-2.85 51.45-2.85L51.45-2.85Q53.55-2.85 55.05-3.58 56.55-4.3 57.47-5.53 58.4-6.75 58.72-8.25L58.72-8.25 59.35-5.5 58.57-5.5Q58.22-3.9 57.26-2.53 56.3-1.15 54.57-0.31 52.85 0.53 50.17 0.53ZM76.84 0.53L76.84 0.53Q72.45 0.53 70.15-2.2 67.84-4.93 67.84-10.15L67.84-10.15 67.84-14.18Q67.84-19.43 70.17-22.19 72.5-24.95 77.02-24.95L77.02-24.95Q79.27-24.95 80.92-24.19 82.57-23.43 83.59-22.05 84.62-20.68 84.97-18.8L84.97-18.8 86.3-18.8 85.09-15.08Q85.02-17.23 84.13-18.69 83.25-20.15 81.73-20.9 80.22-21.65 78.27-21.65L78.27-21.65Q75.17-21.65 73.53-19.85 71.9-18.05 71.9-14.55L71.9-14.55 71.9-9.9Q71.9-6.45 73.53-4.65 75.17-2.85 78.27-2.85L78.27-2.85Q80.12-2.85 81.55-3.56 82.97-4.28 83.91-5.54 84.84-6.8 85.2-8.4L85.2-8.4 86.2-5.5 85-5.5Q84.65-3.85 83.66-2.48 82.67-1.1 81.01-0.29 79.34 0.53 76.84 0.53ZM89.05-33.13L89.05 0 85 0 85.17-5.9 85.09-7.2 85.09-17.4 85.12-18.25 85.02-25.18 85.02-33.13 89.05-33.13ZM116.02-15.63L116.02 0 111.97 0 111.97-15.18Q111.97-17.15 111.43-18.57 110.89-20 109.68-20.79 108.47-21.58 106.37-21.58L106.37-21.58Q104.44-21.58 103.03-20.85 101.62-20.13 100.74-18.89 99.87-17.65 99.52-16.07L99.52-16.07 98.79-18.95 99.67-18.95Q100.07-20.6 101.07-21.96 102.07-23.33 103.75-24.14 105.44-24.95 107.89-24.95L107.89-24.95Q110.79-24.95 112.58-23.85 114.37-22.75 115.19-20.69 116.02-18.63 116.02-15.63L116.02-15.63ZM99.69-18.32L99.69 0 95.64 0 95.64-24.4 99.69-24.4 99.52-18.55 99.69-18.32ZM131.99 0.63L131.99 0.63Q126.74 0.63 124.03-2.21 121.32-5.05 121.32-10.38L121.32-10.38 121.32-14.1Q121.32-19.4 124.04-22.23 126.77-25.05 131.99-25.05L131.99-25.05Q137.24-25.05 139.95-22.23 142.67-19.4 142.67-14.1L142.67-14.1 142.67-10.38Q142.67-5.05 139.95-2.21 137.24 0.63 131.99 0.63ZM131.99-2.68L131.99-2.68Q135.24-2.68 136.93-4.6 138.62-6.53 138.62-10.15L138.62-10.15 138.62-14.33Q138.62-17.93 136.93-19.84 135.24-21.75 131.99-21.75L131.99-21.75Q128.77-21.75 127.07-19.84 125.37-17.93 125.37-14.33L125.37-14.33 125.37-10.15Q125.37-6.53 127.07-4.6 128.77-2.68 131.99-2.68ZM157.16 0.5L157.16 0.5Q154.34 0.5 152.61-0.35 150.89-1.2 150.11-2.93 149.34-4.65 149.34-7.23L149.34-7.23 149.34-22.63 153.34-22.63 153.34-7.7Q153.34-5.3 154.44-4.16 155.54-3.03 158.14-3.03L158.14-3.03Q159.61-3.03 160.98-3.35 162.34-3.68 163.54-4.28L163.54-4.28 163.16-0.8Q161.99-0.2 160.41 0.15 158.84 0.5 157.16 0.5ZM163.29-24.05L162.91-20.8 145.34-20.8 145.34-24.05 163.29-24.05ZM153.41-31.03L153.24-23.65 149.36-23.65 149.34-30.5 153.41-31.03ZM178.31 0.55L178.31 0.55Q172.74 0.55 169.91-2.18 167.09-4.9 167.09-9.98L167.09-9.98 167.09-14.33Q167.09-19.48 169.71-22.26 172.34-25.05 177.39-25.05L177.39-25.05Q180.79-25.05 183.06-23.79 185.34-22.53 186.49-20.2 187.64-17.88 187.64-14.65L187.64-14.65 187.64-13.75Q187.64-12.95 187.57-12.15 187.51-11.35 187.41-10.58L187.41-10.58 183.69-10.58Q183.74-11.78 183.75-12.85 183.76-13.93 183.76-14.83L183.76-14.83Q183.76-17.05 183.05-18.59 182.34-20.13 180.92-20.94 179.51-21.75 177.39-21.75L177.39-21.75Q174.24-21.75 172.66-19.93 171.09-18.1 171.09-14.7L171.09-14.7 171.09-12.38 171.11-11.88 171.11-9.55Q171.11-8.03 171.56-6.8 172.01-5.58 172.97-4.69 173.94-3.8 175.42-3.34 176.91-2.88 178.96-2.88L178.96-2.88Q181.34-2.88 183.39-3.5 185.44-4.13 187.24-5.2L187.24-5.2 186.86-1.7Q185.24-0.68 183.09-0.06 180.94 0.55 178.31 0.55ZM186.56-13.63L186.56-10.58 169.21-10.58 169.21-13.63 186.56-13.63ZM200.66 0.55L200.66 0.55Q197.71 0.55 195.51-0.09 193.31-0.73 191.86-1.48L191.86-1.48 191.48-5.23Q193.31-4.28 195.5-3.58 197.68-2.88 200.46-2.88L200.46-2.88Q203.28-2.88 204.71-3.78 206.13-4.67 206.13-6.45L206.13-6.45 206.13-6.73Q206.13-7.88 205.6-8.63 205.06-9.38 203.66-9.95 202.26-10.53 199.68-11.1L199.68-11.1Q196.61-11.78 194.83-12.69 193.06-13.6 192.3-14.95 191.53-16.3 191.53-18.25L191.53-18.25 191.53-18.48Q191.53-21.68 193.76-23.33 195.98-24.98 200.46-24.98L200.46-24.98Q203.33-24.98 205.45-24.33 207.56-23.68 208.91-22.88L208.91-22.88 209.28-19.45Q207.66-20.4 205.56-21.03 203.46-21.65 200.83-21.65L200.83-21.65Q198.93-21.65 197.76-21.26 196.58-20.88 196.06-20.16 195.53-19.45 195.53-18.45L195.53-18.45 195.53-18.25Q195.53-17.15 196.06-16.39 196.58-15.63 197.95-15.06 199.31-14.5 201.73-13.98L201.73-13.98Q204.86-13.35 206.7-12.48 208.53-11.6 209.33-10.26 210.13-8.93 210.13-6.83L210.13-6.83 210.13-6.4Q210.13-2.95 207.73-1.2 205.33 0.55 200.66 0.55Z" opacity="1" transform="matrix(1,0,0,1,0,0)" fill="#ffffff" class="wordmark-text-0" data-fill-palette-color="primary" id="text-0"></path></svg></g></svg></g></svg></g></svg></g><g transform="matrix(1,0,0,1,0,0.1613343002175469)"><svg viewBox="0 0 64.53372008701957 64.53372008701957" height="64.53372008701957" width="64.53372008701957"><g><svg xmlns="http://www.w3.org/2000/svg" xmlns:xlink="http://www.w3.org/1999/xlink" version="1.1" x="0" y="0" viewBox="14 14 72 72" enable-background="new 0 0 100 100" xml:space="preserve" height="64.53372008701957" width="64.53372008701957" class="icon-icon-0" data-fill-palette-color="accent" id="icon-0"><path d="M14 14v63h27v9h18v-9h27V14H14zM77 59H23V23h54V59z" fill="#ffffff" data-fill-palette-color="accent"></path></svg></g></svg></g></svg></g><defs></defs></svg><rect width="395.52" height="51.68198292659073" fill="none" stroke="none" visibility="hidden"></rect></g></svg></g></svg>